<svg width="22" height="21" viewBox="0 0 22 21" fill="none" xmlns="http://www.w3.org/2000/svg">
<path d="M10.8852 1.71894C9.69395 1.71894 8.5144 1.94125 7.41386 2.37318C6.31331 2.8051 5.31334 3.43818 4.47102 4.23628C2.76988 5.8481 1.81419 8.03419 1.81419 10.3137C1.81419 14.1125 4.41756 17.3355 8.01874 18.4786C8.47229 18.5474 8.61742 18.281 8.61742 18.0489V16.5964C6.10476 17.1121 5.56958 15.4447 5.56958 15.4447C5.15231 14.4477 4.5627 14.1813 4.5627 14.1813C3.73724 13.6484 4.6262 13.6656 4.6262 13.6656C5.53329 13.7258 6.01405 14.5508 6.01405 14.5508C6.80323 15.8572 8.13666 15.4705 8.65371 15.2642C8.73535 14.7056 8.97119 14.3274 9.22518 14.1125C7.21142 13.8976 5.09789 13.1585 5.09789 9.88392C5.09789 8.9299 5.44258 8.16498 6.0322 7.55475C5.94149 7.33988 5.624 6.44603 6.12291 5.28575C6.12291 5.28575 6.88487 5.05369 8.61742 6.16241C9.33403 5.97332 10.1141 5.87878 10.8852 5.87878C11.6562 5.87878 12.4363 5.97332 13.1529 6.16241C14.8855 5.05369 15.6474 5.28575 15.6474 5.28575C16.1463 6.44603 15.8288 7.33988 15.7381 7.55475C16.3278 8.16498 16.6724 8.9299 16.6724 9.88392C16.6724 13.1671 14.5498 13.8891 12.527 14.1039C12.8536 14.3704 13.1529 14.8946 13.1529 15.6939V18.0489C13.1529 18.281 13.298 18.556 13.7607 18.4786C17.3618 17.3269 19.9561 14.1125 19.9561 10.3137C19.9561 9.18498 19.7215 8.06736 19.2657 7.0246C18.8098 5.98184 18.1416 5.03437 17.2993 4.23628C16.457 3.43818 15.457 2.8051 14.3565 2.37318C13.2559 1.94125 12.0764 1.71894 10.8852 1.71894Z" fill="black"/>
</svg>
